<svg xmlns="http://www.w3.org/2000/svg" width="32" height="32" viewBox="0 0 24 24" fill="none">
  <!-- Fondo circular con gradiente -->
  <defs>
    <linearGradient id="metroGradient" x1="0%" y1="0%" x2="100%" y2="100%">
      <stop offset="0%" style="stop-color:#1976d2;stop-opacity:1" />
      <stop offset="100%" style="stop-color:#0d47a1;stop-opacity:1" />
    </linearGradient>
  </defs>

  <!-- Círculo de fondo -->
  <circle cx="12" cy="12" r="11" fill="url(#metroGradient)" stroke="#ffffff" stroke-width="1"/>

  <!-- Tren/Metro -->
  <g fill="#ffffff">
    <!-- Cuerpo principal del tren -->
    <rect x="4" y="9" width="16" height="6" rx="3" ry="3"/>

    <!-- Ventanas del tren -->
    <rect x="6" y="10.5" width="2.5" height="2" rx="0.5" fill="#1976d2"/>
    <rect x="9.5" y="10.5" width="2.5" height="2" rx="0.5" fill="#1976d2"/>
    <rect x="13" y="10.5" width="2.5" height="2" rx="0.5" fill="#1976d2"/>
    <rect x="16.5" y="10.5" width="1.5" height="2" rx="0.5" fill="#1976d2"/>

    <!-- Ruedas -->
    <circle cx="7" cy="16" r="1.5" fill="#ffffff" stroke="#1976d2" stroke-width="1"/>
    <circle cx="12" cy="16" r="1.5" fill="#ffffff" stroke="#1976d2" stroke-width="1"/>
    <circle cx="17" cy="16" r="1.5" fill="#ffffff" stroke="#1976d2" stroke-width="1"/>

    <!-- Vías del tren -->
    <rect x="2" y="17.5" width="20" height="1" fill="#ffffff" opacity="0.8"/>
    <rect x="2" y="19" width="20" height="0.5" fill="#ffffff" opacity="0.6"/>

    <!-- Detalles del frente -->
    <rect x="18.5" y="10" width="1" height="4" rx="0.5"/>

    <!-- Línea decorativa superior -->
    <rect x="4" y="7.5" width="16" height="0.8" rx="0.4" fill="#ffffff" opacity="0.9"/>
  </g>
</svg>
